<?xml version="1.0" standalone="no"?>
<!DOCTYPE svg PUBLIC "-//W3C//DTD SVG 1.1//EN" "http://www.w3.org/Graphics/SVG/1.1/DTD/svg11.dtd" >
<svg xmlns="http://www.w3.org/2000/svg" xmlns:xlink="http://www.w3.org/1999/xlink" version="1.1" viewBox="-10 0 1114 1024">
   <path fill="currentColor"
d="M192 823l489 103l-91.1709 -124.628q31.085 -1.86719 62.1709 -6.37207q106 -15 190 -56q84 -40 138 -97q54 -56 75 -125q20 -68 -2 -140q-23 -71 -82 -128q-60 -57 -144 -94q-83 -37 -184 -50q-101 -14 -207 1q-75 11 -140 35t-116 58t-87 77q-36 42 -53 89
q21 -26 50 -48q29 -23 64 -41q36 -18 77 -31q42 -13 88 -20q85 -12 166 -1t148 40q68 30 116 76t66 103q18 58 2 113q-17 55 -61 100q-43 46 -111 79q-32.3496 15.4502 -68.8945 26.2383l51.8945 -199.238z" />
</svg>
