<?xml version="1.0" standalone="no"?>
<!DOCTYPE svg PUBLIC "-//W3C//DTD SVG 1.1//EN" "http://www.w3.org/Graphics/SVG/1.1/DTD/svg11.dtd" >
<svg xmlns="http://www.w3.org/2000/svg" xmlns:xlink="http://www.w3.org/1999/xlink" version="1.1" viewBox="-638 0 638 1024">
   <path fill="currentColor"
d="M-344.999 954.999l218 -354l-214 -354l-217 354zM-622 584l254.001 -415.001c6.66699 -10 16 -15 28 -15c6 0 12 2 18 6l8 9l252 415c4 5.33301 5.66699 11 5 17s-2.33398 11.667 -5.00098 17l-256 415c-6 10 -15 15 -27 15c-6.66699 0 -13 -2 -19 -6l-8 -9l-250 -415
c-7.33301 -11.333 -7.33301 -22.666 0 -33.999z" />
</svg>
