<?xml version="1.0" standalone="no"?>
<!DOCTYPE svg PUBLIC "-//W3C//DTD SVG 1.1//EN" "http://www.w3.org/Graphics/SVG/1.1/DTD/svg11.dtd" >
<svg xmlns="http://www.w3.org/2000/svg" xmlns:xlink="http://www.w3.org/1999/xlink" version="1.1" viewBox="-841 0 841 1024">
   <path fill="currentColor"
d="M-760.999 604l157 273h316l157 -273l-157 -273h-316zM-826 588l176.001 -305c6.66699 -10.667 16 -16 28 -16h352c6.66699 0 12.167 1.83301 16.5 5.5s8.16602 7.16699 11.499 10.5l176 305c6 10.667 6 21.334 0 32.001l-176 305c-6.66699 10.667 -16 16 -28 16h-352
c-12 0 -21.333 -5.33301 -28 -16l-176 -305c-6 -10.667 -6 -21.334 0 -32.001z" />
</svg>
