<?xml version="1.0" standalone="no"?>
<!DOCTYPE svg PUBLIC "-//W3C//DTD SVG 1.1//EN" "http://www.w3.org/Graphics/SVG/1.1/DTD/svg11.dtd" >
<svg xmlns="http://www.w3.org/2000/svg" xmlns:xlink="http://www.w3.org/1999/xlink" version="1.1" viewBox="-10 0 1042 1024">
   <path fill="currentColor"
d="M368.003 537.992c0 20 3.83301 39 11.5 57s18.167 33.667 31.5 47s28.833 23.833 46.5 31.5s36.834 11.5 57.501 11.5c20 0 39 -3.83301 57 -11.5s33.667 -18.167 47 -31.5s23.833 -29 31.5 -47s11.5 -37 11.5 -57s-3.83301 -39 -11.5 -57s-18.167 -33.667 -31.5 -47
s-29 -23.833 -47 -31.5s-37 -11.5 -57 -11.5c-20.667 0 -39.834 3.83301 -57.501 11.5s-33.167 18.167 -46.5 31.5s-23.833 29 -31.5 47s-11.5 37 -11.5 57zM107 522c8 -2 21.5029 -5.84082 40.5029 -11.5078s38.333 -12.5 58 -20.5s37.167 -16.833 52.5 -26.5
s23.666 -19.167 24.999 -28.5c1.33301 -7.33301 0.333008 -17.666 -3 -30.999s-9.33301 -29.666 -18 -48.999c-8 -20.667 -15.667 -39 -23 -55s-15.666 -30.667 -24.999 -44c-8.66699 -12 -16 -22.833 -22 -32.5s-9 -14.834 -9 -15.501c2.66699 1.33301 5.33398 3 8.00098 5
s5.33398 3.66699 8.00098 5c5.33301 3.33301 11.5 7 18.5 11s14.5 8.66699 22.5 14c8.66699 4.66699 18 9.66699 28 15s20.333 10.333 31 15s20.834 9 30.501 13s18.5 7.66699 26.5 11c5.33301 2 11.333 4.16699 18 6.5s12.834 4.5 18.501 6.5s10.667 3.5 15 4.5
s6.83301 1.5 7.5 1.5c3.33301 -0.666992 8 -5.66699 14 -15s12 -19.666 18 -30.999s11.5 -22.166 16.5 -32.499s8.16699 -17.166 9.5 -20.499c6.66699 -16.667 12.5 -33 17.5 -49s8.16699 -29.667 9.5 -41c3.33301 -15.333 5.83301 -28 7.5 -38s3.5 -15 5.5 -15
s4.16699 6.33301 6.5 19s5.16602 27 8.49902 43c1.33301 6.66699 5 19.334 11 38.001s13 37.834 21 57.501s16.167 37.5 24.5 53.5s15.5 25 21.5 27s25.333 -2 58 -12c14.667 -4.66699 27.834 -9.16699 39.501 -13.5s23 -9 34 -14s22 -10.833 33 -17.5
s22.833 -14.334 35.5 -23.001c11.333 -7.33301 20.666 -13.333 27.999 -18s11 -6.66699 11 -6s-2.83301 5.5 -8.5 14.5s-12.5 19.5 -20.5 31.5c-6.66699 10 -13.834 22.5 -21.501 37.5s-15 30.5 -22 46.5s-13.167 31.833 -18.5 47.5s-9.33301 29.5 -12 41.5
c-1.33301 5.33301 -2.33301 9.5 -3 12.5s-0.333984 7.16699 0.999023 12.5c0.666992 2.66699 3.16699 5.16699 7.5 7.5s9.66602 4.83301 15.999 7.5s13.166 5.5 20.499 8.5s14 6.16699 20 9.5c19.333 10 40 19 62 27s41.667 13.667 59 17
c29.333 6 45.166 9.83301 47.499 11.5s-3.16699 3.83398 -16.5 6.50098c-22.667 4 -46.167 9.83301 -70.5 17.5s-46.833 15.834 -67.5 24.501s-38.334 17.167 -53.001 25.5s-23.334 15.166 -26.001 20.499c-4.66699 9.33301 2 37.333 20 84c18.667 46 38.334 84 59.001 114
c5.33301 8 9.83301 15.167 13.5 21.5s5.16699 9.83301 4.5 10.5s-5.5 -2 -14.5 -8s-20.167 -12.667 -33.5 -20c-8.66699 -5.33301 -21 -12 -37 -20s-32.667 -15.667 -50 -23s-34.166 -13.833 -50.499 -19.5s-29.166 -8.5 -38.499 -8.5
c-7.33301 0 -15.833 7.83301 -25.5 23.5s-18.834 33.5 -27.501 53.5s-16.334 39.5 -23.001 58.5s-10.667 32.167 -12 39.5c-3.33301 14 -6.16602 26.667 -8.49902 38s-3.83301 18 -4.5 20c-1.33301 5.33301 -3.33301 3.33301 -6 -6s-6.33398 -26.666 -11.001 -51.999
c-4.66699 -24.667 -12.167 -50 -22.5 -76s-22.166 -50.667 -35.499 -74c-4 -7.33301 -7.66699 -13 -11 -17s-6.5 -6.66699 -9.5 -8s-6.33301 -2 -10 -2s-8.16699 0.666992 -13.5 2c-31.333 8 -64 19.333 -98 34s-63 31.667 -87 51c-13.333 10.667 -21.333 16 -24 16
c-3.33301 0 2 -10.667 16 -32c7.33301 -10.667 15.833 -24.5 25.5 -41.5s19 -34.833 28 -53.5s16.5 -37.167 22.5 -55.5s9 -34.166 9 -47.499c0 -6 -8.83301 -14.333 -26.5 -25s-38.5 -21 -62.5 -31c-24.667 -10 -49.334 -17.833 -74.001 -23.5s-43.667 -10.167 -57 -13.5
c-17.333 -4 -21.5 -7.33301 -12.5 -10s27.5 -6.66699 55.5 -12z" />
</svg>
