<?xml version="1.0" standalone="no"?>
<!DOCTYPE svg PUBLIC "-//W3C//DTD SVG 1.1//EN" "http://www.w3.org/Graphics/SVG/1.1/DTD/svg11.dtd" >
<svg xmlns="http://www.w3.org/2000/svg" xmlns:xlink="http://www.w3.org/1999/xlink" version="1.1" viewBox="-10 0 1034 1024">
   <path fill="currentColor"
d="M144.002 520l15.999 -2.99805c4 -0.666992 12.167 -3.66699 24.5 -9s25.666 -11.333 39.999 -18s27.5 -13.334 39.5 -20.001s19.333 -11.667 22 -15c4 -4.66699 4 -16.334 0 -35.001c-2 -10.667 -5.5 -22.167 -10.5 -34.5s-10.5 -25.166 -16.5 -38.499
c-12.667 -28.667 -20.667 -42.334 -24 -41.001c-4 1.33301 -9.33301 6.66602 -16 15.999s-13.5 20 -20.5 32s-13.5 23.667 -19.5 35s-10 19.333 -12 24c-3.33301 8.66699 -6.66602 19.834 -9.99902 33.501s-5.66602 25.5 -6.99902 35.5zM545.001 225.999
c1.33301 4 4.16699 11.001 8.5 21.001s9.33301 20.5 15 31.5s11.5 21 17.5 30s11 13.833 15 14.5c6 1.33301 20.667 -1.33398 44 -8.00098c4 -0.666992 11.5 -3.16699 22.5 -7.5s22.333 -9.16602 34 -14.499s22 -10.333 31 -15s13.5 -8 13.5 -10
c0 -4 -13.333 -14.333 -40 -31c-22.667 -14.667 -44 -25.834 -64 -33.501s-43 -14.167 -69 -19.5c-24 -5.33301 -37.333 -6.66602 -40 -3.99902c-3.33301 3.33301 0.666992 18.666 12 45.999zM724.001 633.998l9 33.001c2 9.33301 5.83301 21.333 11.5 36s11.167 28 16.5 40
l17 42l18 -20c9.33301 -10.667 17.833 -23.167 25.5 -37.5s14.667 -29.5 21 -45.5s11.833 -31.833 16.5 -47.5s8.33398 -30.167 11.001 -43.5l4 -30l-33 12c-18.667 6.66699 -37.334 14.167 -56.001 22.5s-34 17.166 -46 26.499zM283.003 827.999
c11.333 8.66699 24.498 17.333 39.498 26s30.833 16.5 47.5 23.5s33.334 12.833 50.001 17.5s32 7.33398 46 8.00098h23l-9 -25c-1.33301 -4 -4.83301 -12.5 -10.5 -25.5s-12 -26.333 -19 -40s-14 -26 -21 -37s-12.167 -16.5 -15.5 -16.5c-4 0 -10.167 1.16699 -18.5 3.5
s-17.666 5.16602 -27.999 8.49902s-21 7.33301 -32 12s-21.167 9 -30.5 13l-40 18zM550.001 902.998c13.333 0 28.335 -2.16602 45.002 -6.49902s33.5 -10 50.5 -17s32.833 -14.667 47.5 -23s26.334 -16.5 35.001 -24.5c9.33301 -8.66699 14.666 -14.334 15.999 -17.001
s0 -5.33398 -4 -8.00098c-3.33301 -2 -10.5 -5.16699 -21.5 -9.5s-23 -9 -36 -14s-25.5 -9.5 -37.5 -13.5s-20.333 -6.66699 -25 -8c-10 -2.66699 -17 -2.83398 -21 -0.500977s-10 9.83301 -18 22.5c-4 6 -8.16699 13.333 -12.5 22s-8.5 17.834 -12.5 27.501
s-7.83301 19.334 -11.5 29.001s-6.83398 18.5 -9.50098 26.5c-2 6.66699 -2.33301 10.667 -1 12s6.66602 2 15.999 2zM303.997 288.999c13.333 5.33301 26.5039 10.499 39.5039 15.499s24.833 9 35.5 12s19.834 5 27.501 6s12.5 0.5 14.5 -1.5
c3.33301 -2 7.66602 -7.83301 12.999 -17.5s10.666 -20.167 15.999 -31.5s10.166 -22.333 14.499 -33s7.5 -18 9.5 -22l15 -39h-14c-12 0.666992 -27.333 3.83398 -46 9.50098s-37.834 12.5 -57.501 20.5s-37.834 16.5 -54.501 25.5s-29 17.5 -37 25.5l-14 14z
M148.998 597.998c2 12 3.83203 22.334 5.49902 31.001s3.5 15.667 5.5 21c2 4.66699 6.33301 14.334 13 29.001s14 29.667 22 45s15.667 29 23 41s13 18 17 18c0.666992 0 2.5 -2.83301 5.5 -8.5s6.5 -11.834 10.5 -18.501c3.33301 -5.33301 7.33301 -13.5 12 -24.5
s9 -22.667 13 -35s7.5 -24 10.5 -35s4.5 -19.167 4.5 -24.5c0 -3.33301 -3 -7.33301 -9 -12s-13.833 -9.83398 -23.5 -15.501s-20.667 -11.5 -33 -17.5s-25.166 -11.333 -38.499 -16c-10.667 -4 -20.167 -7.5 -28.5 -10.5s-12.833 -4.5 -13.5 -4.5c-1.33301 0 0 12.333 4 37
zM724.001 453.001l31.9971 18.9971c5.33301 4 12.833 8.5 22.5 13.5s19.834 10 30.501 15s21.167 9.33301 31.5 13s18.5 5.83398 24.5 6.50098c1.33301 0 3 -1 5 -3s3 -4.66699 3 -8c0 -16 -4 -36 -12 -60s-17.333 -47.167 -28 -69.5s-21.167 -41 -31.5 -56
s-18.166 -20.833 -23.499 -17.5c-2 2 -5.5 8.66699 -10.5 20s-10.333 23.833 -16 37.5s-10.667 26.834 -15 39.501s-7.16602 21.334 -8.49902 26.001zM373.001 541.001c0 18.667 3.5 36.167 10.5 52.5s16.5 30.5 28.5 42.5s26.167 21.5 42.5 28.5s33.833 10.5 52.5 10.5
s36.167 -3.5 52.5 -10.5s30.5 -16.5 42.5 -28.5s21.5 -26.167 28.5 -42.5s10.5 -33.833 10.5 -52.5s-3.5 -36.167 -10.5 -52.5s-16.5 -30.5 -28.5 -42.5s-26.167 -21.5 -42.5 -28.5s-33.833 -10.5 -52.5 -10.5s-36.167 3.5 -52.5 10.5s-30.5 16.5 -42.5 28.5
s-21.5 26.167 -28.5 42.5s-10.5 33.833 -10.5 52.5zM507 99c61.333 0 118.834 11.501 172.501 34.501s100.5 54.5 140.5 94.5s71.5 86.833 94.5 140.5s34.5 111.167 34.5 172.5c0 40.667 -5.33301 79.834 -16 117.501s-25.5 72.834 -44.5 105.501s-42 62.5 -69 89.5
s-56.833 50 -89.5 69s-67.834 33.833 -105.501 44.5s-76.834 16 -117.501 16c-60.667 0 -117.834 -11.667 -171.501 -35s-100.5 -55 -140.5 -95s-71.667 -86.833 -95 -140.5s-35 -110.834 -35 -171.501c0 -40.667 5.33301 -79.834 16 -117.501s25.5 -72.834 44.5 -105.501
s42 -62.5 69 -89.5s56.833 -50 89.5 -69s67.834 -33.833 105.501 -44.5s76.834 -16 117.501 -16z" />
</svg>
