<?xml version="1.0" standalone="no"?>
<!DOCTYPE svg PUBLIC "-//W3C//DTD SVG 1.1//EN" "http://www.w3.org/Graphics/SVG/1.1/DTD/svg11.dtd" >
<svg xmlns="http://www.w3.org/2000/svg" xmlns:xlink="http://www.w3.org/1999/xlink" version="1.1" viewBox="-10 0 1034 1024">
   <path fill="currentColor"
d="M511 364c47.333 70.667 106.333 129.33 177 175.997c-70.667 46.667 -129.667 105.667 -177 177c-23.333 -36 -50.166 -68.667 -80.499 -98s-63.5 -55.666 -99.5 -78.999c36 -23.333 69.167 -49.666 99.5 -78.999s57.166 -61.666 80.499 -96.999zM514 1008
c6.66699 -61.333 23.167 -118.669 49.5 -172.002s60.166 -100.666 101.499 -141.999s88.833 -75.166 142.5 -101.499s110.834 -42.833 171.501 -49.5zM979 537.003c-60.667 -6.66699 -117.834 -23.167 -171.501 -49.5s-101.167 -60 -142.5 -101
s-75.166 -88.333 -101.499 -142s-42.833 -111.167 -49.5 -172.5zM505.003 72.0029c-6.66699 61.333 -23.1699 118.833 -49.5029 172.5s-60.166 101 -101.499 142s-88.666 74.667 -141.999 101s-110.666 42.833 -171.999 49.5zM40 543
c61.333 6.66699 118.669 23.1699 172.002 49.5029s100.666 60.166 141.999 101.499s75.166 88.666 101.499 141.999s42.833 110.666 49.5 171.999zM511 1011v3l-6 -6zM508 68.9961v-3l6 6z" />
</svg>
