<?xml version="1.0" standalone="no"?>
<!DOCTYPE svg PUBLIC "-//W3C//DTD SVG 1.1//EN" "http://www.w3.org/Graphics/SVG/1.1/DTD/svg11.dtd" >
<svg xmlns="http://www.w3.org/2000/svg" xmlns:xlink="http://www.w3.org/1999/xlink" version="1.1" viewBox="-10 0 945 1024">
   <path fill="currentColor"
d="M115 183c0 -1.33301 1.99121 -1.16211 5.99121 0.504883s8.66699 4.5 14 8.5c21.333 15.333 44.5 31.666 69.5 48.999s49.833 34.5 74.5 51.5s48.5 33.167 71.5 48.5s43.5 28.666 61.5 39.999s32.333 20.5 43 27.5s16.334 10.5 17.001 10.5s5.33398 -2.83301 14.001 -8.5
s19.334 -12.667 32.001 -21s26.334 -17.5 41.001 -27.5s28.667 -19.333 42 -28s24.833 -16.334 34.5 -23.001s15.5 -10.667 17.5 -12c24.667 -17.333 47.834 -33.166 69.501 -47.499s40.5 -26.833 56.5 -37.5s28.833 -18.834 38.5 -24.501l14.5 -8.5
c1.33301 1.33301 -10 19.333 -34 54s-53 76.667 -87 126l-122 178l122 178c17.333 24.667 33.333 47.667 48 69s27.667 40.666 39 57.999c23.333 35.333 34.666 53.333 33.999 54s-18 -10.333 -52 -33c-17.333 -11.333 -36.166 -24 -56.499 -38s-42.166 -29 -65.499 -45
s-45.333 -31.167 -66 -45.5s-40 -27.166 -58 -38.499c-18.667 -11.333 -32.667 -20 -42 -26s-14.666 -9.33301 -15.999 -10c-3.33301 -1.33301 -23 9.66699 -59 33c-18 11.333 -37.5 24 -58.5 38s-43.167 29.333 -66.5 46c-2 1.33301 -7.66699 5.16602 -17 11.499
s-20.5 13.833 -33.5 22.5s-26.667 17.834 -41 27.501s-27.666 18.667 -39.999 27s-22.666 15.166 -30.999 20.499s-12.833 8 -13.5 8c-0.666992 -0.666992 10.666 -18.667 33.999 -54c11.333 -17.333 24.166 -36.5 38.499 -57.5s29.833 -43.833 46.5 -68.5l121 -177
l-120 -175c-1.33301 -2 -5.16602 -7.83301 -11.499 -17.5s-14 -21.167 -23 -34.5s-18.667 -27.5 -29 -42.5s-19.666 -28.833 -27.999 -41.5s-15.333 -23.334 -21 -32.001z" />
</svg>
