<?xml version="1.0" standalone="no"?>
<!DOCTYPE svg PUBLIC "-//W3C//DTD SVG 1.1//EN" "http://www.w3.org/Graphics/SVG/1.1/DTD/svg11.dtd" >
<svg xmlns="http://www.w3.org/2000/svg" xmlns:xlink="http://www.w3.org/1999/xlink" version="1.1" viewBox="-10 0 988 1024">
   <path fill="currentColor"
d="M221.999 666.008l49.001 4.99902c10.667 1.33301 22.834 2.16602 36.501 2.49902s28.5 -0.166992 44.5 -1.5c15.333 -1.33301 29 -2.66602 41 -3.99902s21.667 -4.33301 29 -9c2.66699 -1.33301 2.5 0.5 -0.5 5.5s-8.83301 11.833 -17.5 20.5
c-10.667 10.667 -20.5 23.167 -29.5 37.5s-18.167 29.833 -27.5 46.5c-18.667 34.667 -25.334 56.667 -20.001 66c8.66699 15.333 35.334 30.666 80.001 45.999c42.667 14.667 80 20 112 16c12 -1.33301 24.333 -3.66602 37 -6.99902s25.167 -7.16602 37.5 -11.499
s23.666 -9.16602 33.999 -14.499s18.833 -10.333 25.5 -15l20 -15l-28 -57c-7.33301 -15.333 -16.5 -31.666 -27.5 -48.999s-20.167 -30.333 -27.5 -39l-29 -31l37 9c12 3.33301 24.5 5.5 37.5 6.5s26.5 1.5 40.5 1.5c10 0 19.833 -0.333008 29.5 -1
s19.834 -1.66699 30.501 -3c15.333 -2 24.833 -4.16699 28.5 -6.5s6.16699 -9.16602 7.5 -20.499c1.33301 -8.66699 1.5 -19.334 0.5 -32.001s-2.66699 -25.834 -5 -39.501s-5.33301 -27.167 -9 -40.5s-8.16699 -25 -13.5 -35c-12 -23.333 -28.833 -45.833 -50.5 -67.5
s-43.834 -39.167 -66.501 -52.5l-31 -18l-19 21c-4 4.66699 -10.167 13.667 -18.5 27s-16.5 27.666 -24.5 42.999s-15 30 -21 44s-9 23.667 -9 29c0 8.66699 -2.33301 13 -7 13c-5.33301 0 -8 -4 -8 -12c0 -6 -2.5 -15.333 -7.5 -28s-11 -26 -18 -40s-14.167 -27 -21.5 -39
s-13 -20.333 -17 -25c-6.66699 -8 -12.834 -15 -18.501 -21s-9.5 -9 -11.5 -9c-8.66699 0 -24.667 8.33301 -48 25c-25.333 16.667 -45.5 33.834 -60.5 51.501s-29.5 40.167 -43.5 67.5c-4 10 -7.33301 18.667 -10 26s-5 14.666 -7 21.999s-3.33301 15.333 -4 24
s-1 19 -1 31v57zM75 849c7.33301 -8.66699 16.332 -20.6592 26.999 -35.9922s19.667 -30 27 -44c6 -12 10.667 -21.5 14 -28.5s5.83301 -13.167 7.5 -18.5s2.16699 -10.333 1.5 -15s-2 -11 -4 -19c-9.33301 -41.333 -10 -83 -2 -125s22.5 -81.167 43.5 -117.5
s47.667 -68.666 80 -96.999s68.166 -48.833 107.499 -61.5c8 -2.66699 14.833 -5.33398 20.5 -8.00098s10.834 -5.83398 15.501 -9.50098s9.33398 -8.33398 14.001 -14.001s10 -12.834 16 -21.501c7.33301 -12 14.666 -25.333 21.999 -40s12.666 -26.334 15.999 -35.001
c2.66699 -8 5.5 -16.167 8.5 -24.5s5.16699 -13.833 6.5 -16.5c1.33301 -4 2.66602 -5 3.99902 -3s3 6.33301 5 13c6 27.333 19.667 58.666 41 93.999c22 37.333 37.333 56 46 56c2.66699 0 10.167 2.66699 22.5 8s26.5 12 42.5 20c33.333 16.667 63 38.167 89 64.5
s47.333 55.5 64 87.5s28.334 66.167 35.001 102.5s7 73.166 1 110.499c-4 24.667 -5.33301 42.334 -4 53.001c1.33301 8 4.66602 17.833 9.99902 29.5s11.5 23.334 18.5 35.001s14.333 22.834 22 33.501s13.834 19 18.501 25c9.33301 11.333 15.5 19.166 18.5 23.499
s2.16699 5.83301 -2.5 4.5c-4 -1.33301 -14.833 -2.83301 -32.5 -4.5s-37.167 -3.16699 -58.5 -4.5l-77 -3l-36 29c-31.333 25.333 -66 45.5 -104 60.5s-78 22.5 -120 22.5c-19.333 0 -39.666 -2 -60.999 -6s-42.333 -9.83301 -63 -17.5s-40.334 -16.834 -59.001 -27.501
s-35 -22.667 -49 -36c-5.33301 -5.33301 -10.166 -9.5 -14.499 -12.5s-9.16602 -5.5 -14.499 -7.5s-11.5 -3.5 -18.5 -4.5s-15.5 -2.16699 -25.5 -3.5c-10.667 -1.33301 -22.5 -1.83301 -35.5 -1.5s-25.667 1.16602 -38 2.49902s-24 3.16602 -35 5.49902
s-20.5 5.16602 -28.5 8.49902c-3.33301 1.33301 -3.33301 -0.5 0 -5.5s9.33301 -11.833 18 -20.5z" />
</svg>
