<?xml version="1.0" standalone="no"?>
<!DOCTYPE svg PUBLIC "-//W3C//DTD SVG 1.1//EN" "http://www.w3.org/Graphics/SVG/1.1/DTD/svg11.dtd" >
<svg xmlns="http://www.w3.org/2000/svg" xmlns:xlink="http://www.w3.org/1999/xlink" version="1.1" viewBox="-10 0 1034 1024">
   <path fill="currentColor"
d="M323.004 292.006l7.99902 6c5.33301 4 12.5 9.33301 21.5 16s19.333 14 31 22s23.834 16.667 36.501 26l98 66l99 -66c14 -8.66699 27 -17.334 39 -26.001s22.5 -16.334 31.5 -23.001s16 -12.167 21 -16.5l7.5 -6.5c0 -1.33301 -5.66699 -5.33301 -17 -12
s-24.666 -14 -39.999 -22c-14 -6.66699 -25.5 -12 -34.5 -16s-17.833 -7.16699 -26.5 -9.5s-18 -3.83301 -28 -4.5s-23 -1 -39 -1h-35c-10 0 -19 0.333008 -27 1s-15.667 1.83398 -23 3.50098s-15 3.83398 -23 6.50098c-4 1.33301 -11.333 4.33301 -22 9
s-21.834 10 -33.501 16s-22 11.833 -31 17.5s-13.5 10.167 -13.5 13.5zM211.004 614.005c3.33301 10.667 7.66602 22.335 12.999 35.002s11.333 26.334 18 41.001c14.667 27.333 24.334 40.666 29.001 39.999c1.33301 -0.666992 5.5 -5.5 12.5 -14.5s15.5 -20.333 25.5 -34
s20.5 -28.334 31.5 -44.001s21.167 -30.5 30.5 -44.5s17.166 -26 23.499 -36s9.5 -16 9.5 -18s-3 -7.83301 -9 -17.5s-13.833 -21.5 -23.5 -35.5s-20 -28.833 -31 -44.5s-21.333 -30.334 -31 -44.001s-18.167 -25.167 -25.5 -34.5s-11.666 -14.333 -12.999 -15
c-4 -2 -13.667 11 -29 39c-7.33301 14.667 -13.5 28.5 -18.5 41.5s-9.16699 24.833 -12.5 35.5c-7.33301 22 -10.833 47 -10.5 75s3.83301 53 10.5 75zM363.003 814.005c13.333 6.66699 25.834 12.667 37.501 18s23.167 9.66602 34.5 12.999c14 4 28.833 6.66699 44.5 8
s34.5 1.33301 56.5 0c13.333 -0.666992 24.666 -1.33398 33.999 -2.00098s18 -2 26 -4s15.833 -4.5 23.5 -7.5s16.834 -6.83301 27.501 -11.5c42.667 -19.333 62.334 -33 59.001 -41c-1.33301 -3.33301 -6.66602 -9 -15.999 -17s-20.833 -17 -34.5 -27
s-28.334 -20.333 -44.001 -31s-30.167 -20.5 -43.5 -29.5s-24.833 -16.5 -34.5 -22.5s-14.834 -9 -15.501 -9s-5.83398 3.16699 -15.501 9.5s-21.667 14.333 -36 24s-29.666 20.334 -45.999 32.001s-31.5 22.334 -45.5 32.001s-25.833 18 -35.5 25
s-14.834 10.833 -15.501 11.5c-1.33301 5.33301 11.667 15 39 29zM634.003 539.003c0 2 3.16699 8.00195 9.5 18.002s14.166 22.167 23.499 36.5s19.5 29.666 30.5 45.999s21.333 31.333 31 45s18 25 25 34s10.833 13.5 11.5 13.5c1.33301 0 4.33301 -2.33301 9 -7
s9 -11 13 -19c16.667 -23.333 29.167 -49.5 37.5 -78.5s12.5 -58.5 12.5 -88.5s-4.16699 -59.667 -12.5 -89s-20.833 -55.333 -37.5 -78c-4 -8 -8.33301 -14.333 -13 -19s-7.66699 -7 -9 -7c-0.666992 0 -4.5 4.5 -11.5 13.5s-15.333 20.333 -25 34s-20 28.667 -31 45
s-21.167 31.666 -30.5 45.999s-17.166 26.5 -23.499 36.5s-9.5 16 -9.5 18zM102 474c20.667 -19.333 37.6699 -37.4971 51.0029 -54.4971s22.666 -30.5 27.999 -40.5c4 -8 9 -17.5 15 -28.5s12.333 -19.833 19 -26.5c5.33301 -6.66699 10 -13.334 14 -20.001s6 -11 6 -13
s-2.66699 -7.5 -8 -16.5s-11.666 -18.5 -18.999 -28.5c-8 -11.333 -14.667 -21.166 -20 -29.499s-8 -13.166 -8 -14.499s4.5 0.5 13.5 5.5s19.5 11.833 31.5 20.5l44 30l29 -19c8 -6 18 -12.667 30 -20s23 -13.333 33 -18c9.33301 -5.33301 22.666 -15.333 39.999 -30
s35.333 -31.667 54 -51l61 -63l62 64c40.667 42.667 71 68.334 91 77.001c8.66699 2.66699 19 7.66699 31 15s22.667 14.333 32 21c8.66699 6 16.5 11.333 23.5 16s10.833 7 11.5 7s5.83398 -3 15.501 -9s20.5 -13.667 32.5 -23c12.667 -8 23.334 -14.5 32.001 -19.5
s13 -7.16699 13 -6.5c0 1.33301 -3.33301 6.5 -10 15.5s-14 19.833 -22 32.5l-31 44l21 25c5.33301 6.66699 11.666 16.334 18.999 29.001s13.333 24 18 34c6.66699 14 16 28.667 28 44s29.667 33.333 53 54l62 62l-62 61c-23.333 21.333 -41.333 39.666 -54 54.999
s-21.667 29.666 -27 42.999c-4.66699 10.667 -10.5 22.167 -17.5 34.5s-13.5 22.166 -19.5 29.499l-21 25l32 43c8.66699 11.333 16 21.833 22 31.5s9 15.167 9 16.5s-4.33301 -0.5 -13 -5.5s-19.334 -11.833 -32.001 -20.5c-12 -8.66699 -22.667 -16 -32 -22
s-14.333 -9 -15 -9s-5.5 3.16699 -14.5 9.5s-19.833 13.166 -32.5 20.499c-12.667 8.66699 -24.667 16 -36 22s-18.333 9 -21 9s-11.834 6.5 -27.501 19.5s-32.834 28.833 -51.501 47.5l-70 69l-60 -62c-17.333 -18 -35 -34.333 -53 -49s-31.667 -24.667 -41 -30
c-10 -4.66699 -21 -10.834 -33 -18.501s-22 -14.167 -30 -19.5l-29 -19l-45 30c-12 8 -22.667 15.333 -32 22s-14.666 10 -15.999 10c-0.666992 0 1.66602 -4.33301 6.99902 -13s12 -19 20 -31c9.33301 -12 17 -22.833 23 -32.5s9 -15.834 9 -18.501
c0 -2 -2 -6.83301 -6 -14.5s-9.33301 -15.167 -16 -22.5s-13 -16.333 -19 -27s-10.667 -19.334 -14 -26.001c-1.33301 -7.33301 -9.5 -19.166 -24.5 -35.499s-31.833 -34.5 -50.5 -54.5l-67 -68z" />
</svg>
