<?xml version="1.0" standalone="no"?>
<!DOCTYPE svg PUBLIC "-//W3C//DTD SVG 1.1//EN" "http://www.w3.org/Graphics/SVG/1.1/DTD/svg11.dtd" >
<svg xmlns="http://www.w3.org/2000/svg" xmlns:xlink="http://www.w3.org/1999/xlink" version="1.1" viewBox="-10 0 1034 1024">
   <path fill="currentColor"
d="M823 355.001l62.002 -59.9932c19.333 28.667 35.333 59.834 48 93.501s20.667 67.834 24 102.501v2c0.666992 3.33301 1 6.16602 1 8.49902s0.333008 4.83301 1 7.5c0 2.66699 0.166992 5.16699 0.5 7.5s0.5 4.83301 0.5 7.5v36c0 5.33301 -0.333008 8.66602 -1 9.99902
v4c0 5.33301 -0.333008 8.66602 -1 9.99902c0 3.33301 -0.166992 6.16602 -0.5 8.49902s-0.833008 5.16602 -1.5 8.49902c0 2 -0.166992 4 -0.5 6s-0.5 4.33301 -0.5 7c-0.666992 0.666992 -1 1.66699 -1 3s-0.666992 4.66602 -2 9.99902v3
c-1.33301 5.33301 -2.33301 9 -3 11v2c-1.33301 5.33301 -2.5 10.166 -3.5 14.499s-2.16699 8.16602 -3.5 11.499v2c-0.666992 2 -1.33398 3.83301 -2.00098 5.5s-1.33398 3.5 -2.00098 5.5v2c-2.66699 6.66699 -5 13 -7 19s-4.66699 12.333 -8 19
c-4.66699 10.667 -10.667 23 -18 37l-67 -55c12 -24.667 21.333 -50.167 28 -76.5s10 -54.5 10 -84.5c0 -68.667 -17.667 -131.334 -53 -188.001zM61 525c0.666992 -5.33301 1 -10.832 1 -16.499s0.666992 -11.167 2 -16.5c8 -72 31.667 -137.667 71 -197l62 60
c-16.667 28 -29.5 57.667 -38.5 89s-13.5 64.333 -13.5 99c0 30 3.33301 58.167 10 84.5s16 51.833 28 76.5l-67 55c-14.667 -26 -27 -55.833 -37 -89.5s-15.667 -65.834 -17 -96.501v-2c-0.666992 -2 -1 -4.16699 -1 -6.5v-6.5v-33zM252.999 174
c28 -18.667 57.334 -34.5 88.001 -47.5s63 -22.167 97 -27.5h3c0.666992 -0.666992 2.83398 -1.16699 6.50098 -1.5s6.16699 -0.5 7.5 -0.5c1.33301 -0.666992 4.66602 -1 9.99902 -1c15.333 -2 30.333 -3 45 -3c15.333 0 31 1 47 3c4.66699 0 7.66699 0.333008 9 1h3
c0.666992 0 2.5 0.166992 5.5 0.5s4.83301 0.833008 5.5 1.5h5c67.333 12 128.333 37 183 75l-62 61c-28.667 -18 -59.5 -32.167 -92.5 -42.5s-67.5 -15.5 -103.5 -15.5s-70.333 5.16699 -103 15.5s-63.334 24.5 -92.001 42.5zM349 765c8 -4 16.166 -8.5 24.499 -13.5
s16 -10.5 23 -16.5s12.5 -12.667 16.5 -20s5 -15.333 3 -24c-1.33301 -7.33301 -3.83301 -14.333 -7.5 -21s-7.5 -13 -11.5 -19c-19.333 -30 -32.5 -62.167 -39.5 -96.5s-5.16699 -68.5 5.5 -102.5c5.33301 -16.667 12.5 -32.834 21.5 -48.501s19.667 -29.667 32 -42
s26.333 -22.166 42 -29.499s32.834 -11 51.501 -11c18 0 35 3.66699 51 11s30.333 17.166 43 29.499s23.667 26.333 33 42s16.333 31.834 21 48.501c10 34 11.667 68.167 5 102.5s-19.667 66.5 -39 96.5c-4 6 -8 12.333 -12 19s-6.33301 13.667 -7 21
c-0.666992 8.66699 1 16.667 5 24s9.33301 14 16 20s14 11.5 22 16.5s16 9.5 24 13.5c26.667 13.333 52 29.5 76 48.5s44.333 40.833 61 65.5c-40 36 -85.167 64 -135.5 84s-104.833 30 -163.5 30c-58 0 -112.167 -10 -162.5 -30s-95.5 -48 -135.5 -84
c16.667 -24.667 37 -46.5 61 -65.5s49.333 -35.167 76 -48.5z" />
</svg>
