<?xml version="1.0" standalone="no"?>
<!DOCTYPE svg PUBLIC "-//W3C//DTD SVG 1.1//EN" "http://www.w3.org/Graphics/SVG/1.1/DTD/svg11.dtd" >
<svg xmlns="http://www.w3.org/2000/svg" xmlns:xlink="http://www.w3.org/1999/xlink" version="1.1" viewBox="-10 0 1076 1024">
   <path fill="currentColor"
d="M604.001 484.994c0 -1.33301 0.332031 -2.16699 0.999023 -2.5s0.333984 -0.5 -0.999023 -0.5v3zM433.003 395.994c7.33301 -14 16.998 -23.667 28.998 -29c7.33301 -3.33301 14.333 -3.16602 21 0.500977s13.334 7.16699 20.001 10.5s12.834 6.16602 18.501 8.49902
s11.5 5.5 17.5 9.5l9 6l-9 9c-4.66699 6.66699 -9.66699 14.5 -15 23.5s-11 18.833 -17 29.5c-6.66699 -3.33301 -13.834 -6.33301 -21.501 -9s-14.167 -5.66699 -19.5 -9c-2 0 -5 -1 -9 -3s-8.16699 -4.33301 -12.5 -7s-8.16602 -5.5 -11.499 -8.5s-5.33301 -5.5 -6 -7.5
c-1.33301 -3.33301 -1 -7.33301 1 -12s3.66699 -8.66699 5 -12zM383.006 522.992c-3.33301 -7.33301 -4.00293 -15.498 -2.00293 -24.498s4.66699 -16.833 8 -23.5c6 -10.667 14 -16 24 -16c2 0 6.83301 1.16699 14.5 3.5s15.834 5 24.501 8s16.834 5.83301 24.501 8.5
s12.834 4.66699 15.501 6c-3.33301 5.33301 -6.33301 10 -9 14s-5 7.66699 -7 11c-1.33301 2 -2.5 4 -3.5 6s-2.16699 3.66699 -3.5 5c0 1.33301 -0.5 2.66602 -1.5 3.99902s-1.5 2.66602 -1.5 3.99902v6c2.66699 11.333 8.33398 22.333 17.001 33
c-0.00292969 0 -0.00683594 -0.00195312 -0.00976562 -0.00195312c-1.33496 -1.33105 -4 -2.33008 -7.99609 -2.99609l7.97852 2.99219c-5.99121 -1.33398 -11.9814 -3.49902 -17.9727 -6.49414c-6 -3 -12 -5.16699 -18 -6.5c-5.33301 -1.33301 -11 -2.83301 -17 -4.5
s-12 -3.83398 -18 -6.50098c-4.66699 -3.33301 -9.83398 -6.16602 -15.501 -8.49902s-10.167 -6.5 -13.5 -12.5zM377.005 675.994c0 -0.666992 0.500977 -1.33594 1.50098 -2.00293s1.5 -1.66699 1.5 -3l3 -6c1.33301 -1.33301 2.83301 -2.66602 4.5 -3.99902
s4.16699 -2 7.5 -2h2c7.33301 0 15.333 0.5 24 1.5s16.667 2.5 24 4.5l16 4c5.33301 1.33301 10.666 2 15.999 2c4.66699 0 9.5 0.666992 14.5 2s10.167 2.33301 15.5 3c1.33301 1.33301 2.83301 2.33301 4.5 3s3.16699 2.66699 4.5 6
c1.33301 1.33301 2.16602 3.5 2.49902 6.5s0.5 5.16699 0.5 6.5c0 2.66699 -0.166992 5.33398 -0.5 8.00098s-1.16602 5.66699 -2.49902 9c-4 4 -11 7.66699 -21 11h-65c-1.33301 0 -3.16602 0.5 -5.49902 1.5s-4.5 1.5 -6.5 1.5c-4.66699 0 -9.5 -0.666992 -14.5 -2
s-8.83301 -2.33301 -11.5 -3c-8 -4 -13.333 -11.167 -16 -21.5s-2.33398 -19.166 0.999023 -26.499zM373.007 567.996c4 -4 9.33105 -6.00195 15.998 -6.00195c4 0 12.333 1.33301 25 4s26 6 40 10s27.167 8 39.5 12s19.833 7.66699 22.5 11
c4.66699 6.66699 6.16699 14.5 4.5 23.5s-5.16699 17.167 -10.5 24.5l-7 6c-1.33301 0 -2.66602 -0.5 -3.99902 -1.5s-2.66602 -1.5 -3.99902 -1.5h-15l-35 -3c-1.33301 0 -3.33301 -0.5 -6 -1.5s-4.66699 -1.5 -6 -1.5c-6 -1.33301 -11.5 -2.33301 -16.5 -3
s-10.5 -1.66699 -16.5 -3c-6.66699 -1.33301 -13.334 -3.16602 -20.001 -5.49902s-11.667 -7.16602 -15 -14.499c-3.33301 -8 -4.16602 -17 -2.49902 -27s5.16699 -17.667 10.5 -23zM61.0029 401.995l168.004 -37.999c10.667 -16.667 22 -32.334 34 -47.001
s25.333 -27.667 40 -39l17 -171l149 91c13.333 -2.66699 26.166 -4.66699 38.499 -6s24.833 -2 37.5 -2c4.66699 0 9.66699 0.5 15 1.5s10 1.5 14 1.5h6l133 -110l38 168c16.667 11.333 32.334 22.833 47.001 34.5s27.667 24.834 39 39.501l171 21l-91 145l-50 82
c0 -40 -7.83301 -78.833 -23.5 -116.5s-36.834 -71.167 -63.501 -100.5s-57.834 -53.5 -93.501 -72.5s-73.834 -29.833 -114.501 -32.5h-27c-41.333 0 -80.5 7.66699 -117.5 23s-69.667 36.166 -98 62.499s-51.333 57.5 -69 93.5s-28.167 75 -31.5 117
c-4 56.667 5.16699 109.167 27.5 157.5s54.5 88.5 96.5 120.5l-97 -13l-171 -17l91 -145c-3.33301 -17.333 -5.83301 -35.333 -7.5 -54s-1.83398 -37 -0.500977 -55c0 -1.33301 0.333008 -1.83301 1 -1.5s1 -0.166992 1 -1.5zM436 748l47.0029 -0.00488281
c15.333 0 28.333 -4.33301 39 -13c7.33301 -7.33301 11.5 -14.666 12.5 -21.999s3.5 -15.666 7.5 -24.999c3.33301 6.66699 6.16602 13.167 8.49902 19.5s6.5 11.833 12.5 16.5c4 3.33301 8.16699 5.33301 12.5 6s8.83301 2.66699 13.5 6c-17.333 -17.333 -26 -40 -26 -68
c0 -11.333 0.5 -22.333 1.5 -33s4.16699 -20.667 9.5 -30c5.33301 -8.66699 11.833 -16.667 19.5 -24s15.167 -15 22.5 -23c5.33301 -6 10.666 -12.333 15.999 -19s11 -12.667 17 -18l-6 2h-6c-6 0 -11.333 -3 -16 -9s-8.33398 -11.667 -11.001 -17l-3 -6
c0 -1.33301 -0.5 -2.33301 -1.5 -3s-1.5 -1.66699 -1.5 -3v14c-1.33301 9.33301 -6.33301 17 -15 23s-16.334 11.333 -23.001 16c-1.33301 1.33301 -2.83301 2.33301 -4.5 3s-3.16699 1.66699 -4.5 3c-7.33301 4 -14.5 7.33301 -21.5 10s-12.5 4 -16.5 4
c-7.33301 0.666992 -13.166 -0.333008 -17.499 -3s-7.83301 -5.33398 -10.5 -8.00098c-1.33301 -2.66699 -2.33301 -5.16699 -3 -7.5s-1.33398 -4.83301 -2.00098 -7.5c3.33301 -6.66699 7 -13.667 11 -21s8.33301 -14 13 -20c8.66699 -11.333 17.167 -23.333 25.5 -36
s15.5 -23.667 21.5 -33c0 -1.33301 2 -4 6 -8c0 -2 1 -3 3 -3c1.33301 -1.33301 2.33301 -2.66602 3 -3.99902s1.66699 -2 3 -2c9.33301 -6 17.333 -9 24 -9c2 0 3.66699 0.166992 5 0.5s2.33301 0.5 3 0.5c0.666992 0.666992 1.16699 1 1.5 1s0.833008 0.333008 1.5 1
c17.333 8 34.5 15.667 51.5 23s34.167 13.666 51.5 18.999c9.33301 4 17.833 9.66699 25.5 17s12.167 16.333 13.5 27c3.33301 19.333 5 37 5 53v44v27c0 9.33301 -0.5 17.5 -1.5 24.5s-1.5 13.5 -1.5 19.5v38c0 5.33301 1 12.5 3 21.5s5 15.5 9 19.5l13 13l14 20l41 44
l47 60c-22 34 -51.333 61.333 -88 82s-74.334 35.667 -113.001 45c-1.33301 -3.33301 -2.83301 -6.33301 -4.5 -9s-3.83398 -5.66699 -6.50098 -9c-3.33301 -6 -7.16602 -12.667 -11.499 -20s-9.16602 -14.666 -14.499 -21.999c-0.666992 -1.33301 -3 -5 -7 -11l-13 -19.5
c-4.66699 -7 -9 -13.333 -13 -19l-6 -8.5c-1.33301 -1.33301 -2.5 -2.33301 -3.5 -3s-1.5 -1.66699 -1.5 -3c-4.66699 -7.33301 -10.667 -13.666 -18 -18.999c-1.33301 -1.33301 -2.83301 -2.16602 -4.5 -2.49902s-3.16699 -1.16602 -4.5 -2.49902
c-19.333 -7.33301 -36.166 -13.833 -50.499 -19.5s-29.166 -15.834 -44.499 -30.501c-1.33301 -1.33301 -3.83301 -4 -7.5 -8s-7.66699 -8.5 -12 -13.5s-8.33301 -10.167 -12 -15.5s-5.83398 -9.66602 -6.50098 -12.999zM482.979 567.986
c0.00683594 0 0.0146484 0.0078125 0.0214844 0.0078125l-0.00390625 -0.00390625c-0.00585938 0 -0.0117188 -0.00390625 -0.0175781 -0.00390625z" />
</svg>
